<?xml version="1.0" encoding="UTF-8"?>
<!DOCTYPE svg PUBLIC "-//W3C//DTD SVG 1.1//EN" "http://www.w3.org/Graphics/SVG/1.1/DTD/svg11.dtd">
<!-- Creator: CorelDRAW -->
<svg xmlns="http://www.w3.org/2000/svg" xml:space="preserve" width="210mm" height="87mm" version="1.1" style="shape-rendering:geometricPrecision; text-rendering:geometricPrecision; image-rendering:optimizeQuality; fill-rule:evenodd; clip-rule:evenodd"
viewBox="0 0 21000 8700"
 xmlns:xlink="http://www.w3.org/1999/xlink"
 xmlns:xodm="http://www.corel.com/coreldraw/odm/2003">
 <defs>
  <style type="text/css">
   <![CDATA[
    .str0 {stroke:white;stroke-width:26.5;stroke-miterlimit:22.9256}
    .fil7 {fill:none;fill-rule:nonzero}
    .fil5 {fill:white}
    .fil6 {fill:white;fill-rule:nonzero}
    .fil3 {fill:url(#id1)}
    .fil4 {fill:url(#id2)}
    .fil2 {fill:url(#id3)}
    .fil1 {fill:url(#id4)}
    .fil0 {fill:url(#id5)}
   ]]>
  </style>
    <clipPath id="id0" style="clip-rule:nonzero">
     <path d="M1382.27 7179.39l4427.43 0 0 -1068.68 -4427.43 0 0 1068.68z"/>
    </clipPath>
  <linearGradient id="id1" gradientUnits="userSpaceOnUse" x1="5228.87" y1="2910.44" x2="3688.38" y2="5403.93">
   <stop offset="0" style="stop-opacity:1; stop-color:#EED149"/>
   <stop offset="0.14902" style="stop-opacity:1; stop-color:#E97E3C"/>
   <stop offset="0.301961" style="stop-opacity:1; stop-color:#EED149"/>
   <stop offset="1" style="stop-opacity:1; stop-color:#E32B2F"/>
  </linearGradient>
  <linearGradient id="id2" gradientUnits="userSpaceOnUse" x1="2203.13" y1="5614.48" x2="3061.72" y2="4835.17">
   <stop offset="0" style="stop-opacity:1; stop-color:#904087"/>
   <stop offset="0.658824" style="stop-opacity:1; stop-color:#52236E"/>
   <stop offset="1" style="stop-opacity:1; stop-color:#130554"/>
  </linearGradient>
  <linearGradient id="id3" gradientUnits="userSpaceOnUse" x1="1964.83" y1="2619.79" x2="3972.67" y2="2277.83">
   <stop offset="0" style="stop-opacity:1; stop-color:#006D73"/>
   <stop offset="0.25098" style="stop-opacity:1; stop-color:#358E47"/>
   <stop offset="0.439216" style="stop-opacity:1; stop-color:#187C5F"/>
   <stop offset="1" style="stop-opacity:1; stop-color:#6BAF1A"/>
  </linearGradient>
  <linearGradient id="id4" gradientUnits="userSpaceOnUse" x1="1963.02" y1="2649.58" x2="3894.02" y2="2302.24">
   <stop offset="0" style="stop-opacity:1; stop-color:#016166"/>
   <stop offset="0.329412" style="stop-opacity:1; stop-color:#429E41"/>
   <stop offset="0.568627" style="stop-opacity:1; stop-color:#207E54"/>
   <stop offset="1" style="stop-opacity:1; stop-color:#84DB1B"/>
  </linearGradient>
  <linearGradient id="id5" gradientUnits="userSpaceOnUse" x1="1567.62" y1="3354.31" x2="2656.76" y2="4111.49">
   <stop offset="0" style="stop-opacity:1; stop-color:#009083"/>
   <stop offset="0.341176" style="stop-opacity:1; stop-color:#00637E"/>
   <stop offset="1" style="stop-opacity:1; stop-color:#003579"/>
  </linearGradient>
 </defs>
 <g id="Layer_x0020_1">
  <metadata id="CorelCorpID_0Corel-Layer"/>
  <path class="fil0" d="M2469.07 4053.31l6.72 5.36 6.75 5.3 7.73 3.5c3.16,11.08 1.7,5.94 13.26,16.34l279.56 216.14c21.19,-29.03 48.29,-56.05 74.14,-86.06 158.61,-184.23 146.01,-378.61 -43.78,-534.95 -27.5,-22.64 -157.08,-112.21 -198.73,-115.69 -14.02,13.68 3.97,12.47 -20.83,57.97l-73.02 260.17c-0.56,1.38 -1.34,2.86 -1.92,4.17 -15.65,35.62 -6.22,19.46 -12.83,45.42l-12.14 30.39c-22.87,56.69 -9.7,71.91 -24.91,91.94zm-571.4 -453.88l6.63 5.41 6.64 5.36 7.01 2.75c7.15,17.43 49.83,44.54 65.27,55.67l205.38 164.16c95.12,76.24 183.52,145.31 280.47,220.53 15.21,-20.03 2.04,-35.25 24.91,-91.94l12.14 -30.39c6.61,-25.96 -2.82,-9.8 12.83,-45.42 0.58,-1.31 1.36,-2.79 1.92,-4.17l73.02 -260.17c24.8,-45.5 6.81,-44.29 20.83,-57.97 -26.03,-29.05 -108.57,-55.03 -150.78,-71.48 -53.89,-21.02 -103.2,-37.51 -157.85,-56.46 -55.89,-19.42 -290.11,-96.83 -333.38,-93.32 -4.66,38.16 -59.73,224.32 -75.04,257.44zm0 0c15.31,-33.12 70.38,-219.28 75.04,-257.44 -1.31,-0.98 -3.17,-2.07 -4.19,-2.62l-590.87 -151.85 520.02 411.91z"/>
  <path class="fil1" d="M1942.31 3222.16l1186.27 -123.6 608.39 -1441.4c267.75,366.14 433.89,667.06 524.35,909.55 325.07,871.43 -379.74,1005.96 -1328.15,859.79 -312.02,-48.09 -656.53,-107.96 -990.86,-204.34z"/>
  <path class="fil2" d="M1944.19 3224.04l1186.27 -123.6 608.39 -1441.4c183.35,458.42 289.51,738.84 313.34,994.72 37.8,405.96 -30.43,752.83 -1070.27,694.18 -315.15,-17.75 -677.62,-70.09 -1037.73,-123.9z"/>
  <path class="fil3" d="M3224.32 5534.7c100.65,-103.51 224.59,-186.57 314.04,-295.87 519.73,-635.03 955.66,-1331.04 973.23,-2238.61 2.65,-137.67 -29.27,-281.43 -45.68,-429.32 116.82,202.7 152.41,397.52 177.85,608.12l1070.06 119.58 -1062.1 985.8c100.42,490.58 200.83,981.13 301.23,1471.69 -530.48,-297.03 -684.45,-555.44 -934.34,-590.47 -130.06,-18.22 -374.32,162.46 -794.29,369.08z"/>
  <path class="fil4" d="M1993.17 4928.02c165.7,-131.62 589.74,-297.74 777.13,-355.85 269.71,-85.56 976.63,-212.06 763.36,303.15 -284.76,437.29 -660.23,624.65 -1057.37,878.71l181.91 -1038.78 -665.03 212.77z"/>
  <path class="fil5" d="M3542.47 3795.23c-2.41,7.26 -2.75,12.49 3.27,23.16 10.21,-0.79 17.79,-6.89 18.1,-7.94 0.25,-0.87 1.18,-0.77 1.77,-1.16 1.67,-9.36 -0.26,-10.47 3.64,-17.85l9.67 -0.16c3.66,2.24 3.25,0.62 7.54,6.16l19.63 -16.4c0.12,-0.04 8.47,-13.81 23.64,37.02 -5.29,14.04 -18.38,29.42 -36.04,33.57 -34.27,8.09 -44.93,-43.96 -63.29,-2.57 -0.59,0.61 -1.4,1.41 -1.8,1.85 -0.41,0.41 -1.26,1.29 -1.73,1.8 -0.56,0.6 -2.66,2.75 -3.17,3.28 -2.07,2.24 -2.19,2.56 -3.61,4.37 1.93,6.03 -0.26,2.61 4.76,8.93 17.87,22.48 23.29,17.78 31.16,10.25 4.45,-4.27 0.77,-1.25 4.88,-4.07 0.4,-0.28 1.84,0.04 2.13,-0.91 0.31,-1.01 1.52,-0.53 2.27,-0.82 13.58,-1.04 9.81,-8.74 30.79,-6 11.66,1.53 13.86,6.45 20.72,13.38 18.23,18.41 16.27,22.75 2.96,44.38 -12.67,20.53 18.32,21.15 6.12,44.38l-28.85 35.79c-31.96,0.92 -26.57,-28.88 -54.41,-6.31 -15.19,12.3 -19.49,29.79 -44.01,30.67 -17.18,0.61 -60.64,1.37 -75.52,-2.32 -12.13,-2.98 -17.04,-8.55 -23.75,-14.9 -6.72,-6.34 -11.95,-10.51 -17.56,-17.45 -21.23,3.03 -16.49,4.21 -27.27,17.27 -7.78,9.42 -12.36,9.85 -18.47,22.45 4.53,10.86 28.91,41.79 42.68,39.63 22.03,-3.43 15.68,-30.51 54.31,-30.71 142.15,-0.75 68.2,19.78 130.57,41.22 7.32,-9.5 33.75,-37.05 47.29,-40.85 11.41,5.89 21.4,17.64 27.81,26.24 1.3,17.86 -7.91,46.96 -15.98,59.43 -38.97,1.29 -25.39,-0.93 -61.45,36.04 -32.35,33.16 -48.19,-11.83 -62.92,-12.31 -12.35,3.07 -26.62,16.71 -32.22,29.36 2.68,11.08 18.65,26.01 29.26,31.07 17.67,1.61 35.27,-53.04 76.08,-0.17 13.43,17.39 -7.77,28.35 -20.2,48.46 -39.91,64.5 -38.15,-5.53 -70.72,26.28 3.07,7.81 3.32,8.69 10.71,13.85l11.55 6.6c0.33,-0.6 1.43,0.74 2.06,1.25 -4.3,19.72 -78.77,70.44 -96.34,71.54l-20.82 8.76 7.93 8c0.34,0.3 1.21,0.83 1.73,1.32 21.54,6.62 43.5,18.82 65.94,28.32 21.67,9.15 44.29,19.36 65.51,29.33l126.5 57.38c9.06,2.98 4.78,2.31 14.79,2.78l8.92 -10.19c0.82,-15.29 21.51,-40.59 30.12,-48.65 6.29,-5.87 3.82,-4.31 11.76,-9.15 4.68,-2.9 7.91,-4.14 11.58,-6.44 10.65,-6.68 9.98,-8.31 25.64,-12.79 48.05,-13.77 90.52,15.29 136.91,-13.67 13.89,-8.68 32.69,-28.36 37.3,-42.36 6.71,-20.41 -1.58,-52.55 7.02,-70.47 4.52,-9.44 10.79,-11.87 15.34,-22.81 5.27,-12.73 1.45,-21.29 2.92,-35.85 1.41,-13.57 6.44,-16.28 6.83,-32.74 0.39,-16.31 -5.08,-21.67 -2.56,-33.84 8.38,-10.52 23.42,-12.73 33.3,-23 3.59,-3.75 7.33,-10.11 11.46,-15.28 25.18,-31.41 -25.66,-64.22 -28.67,-83.25 -7.88,-4.64 -5.49,-2.27 -10.19,-10.27 -6.89,-6.68 -20.84,-27.02 -26.01,-34.86 -13.69,-20.68 -16.44,-14.53 -15.85,-48.33 0.38,-20.27 14.89,-75.95 4.53,-112.83 -3.3,-11.76 -2.61,-16.46 -5.19,-27.85l-26.28 -61.25c-5.04,-9.07 -8.16,-10.7 -13.69,-19.01 -4.59,-6.88 -7.05,-11.85 -11.87,-17.95 -46.75,-58.86 -105.6,-102.31 -177.7,-125.13l-24.59 -7.64c-25.13,-9.18 -113.99,-12.13 -138.86,-3.19 -10.68,3.83 -23.77,20.28 -28.33,31.41 -0.05,8.45 90.57,88.19 90.35,133.25 -5.42,3.18 -14.14,4.85 -20.6,13.09 -5.23,6.68 -6,12.02 -8.41,21.26 -24.92,0.03 -8.57,2.63 -22.82,7.12zm-442.09 376.62l-5.44 4.67 -5.03 5.53c-12,21.55 28.65,52.99 46.33,55.92 2.86,-3.91 17.61,-18.34 21.95,-21.91 12.6,-10.38 17.92,-4.6 37.26,-7.48 17.39,-2.59 22.01,-0.15 30.87,9.68 42.41,47.1 46.14,50.56 72.86,23.32 52.57,-53.52 53.08,-42.32 5.81,-87.18 -41.32,-39.22 -30.76,-28.35 -79.41,16.5 -6.75,6.23 -12.36,10.57 -26.02,10.12 -6.98,-0.24 -23.54,-2.33 -33.98,-3.14 -33.67,-48.14 -42.23,-29.98 -65.2,-6.03zm338.66 -308.04c-0.26,-4.96 -1.61,-4.14 2.94,-3.56 -0.48,-4.42 -1.55,-3.5 2.73,-3.22 -0.56,-4.44 -1.49,-3.42 2.98,-2.91 -0.24,-4.91 -1.4,-4.12 3.21,-2.7l9.67 -2.85 1.69 -17.27 -2.11 -5.21c-6.41,-11.8 -45.3,-50.48 -58.39,-55.91 -20.02,-8.25 -30.85,26.45 -58.79,44.25 -9.92,6.32 -37.38,7.55 -48.79,1.3 -8.39,-4.61 -19.69,-21.01 -29.41,-27.08 -13.25,-8.24 -23.77,4.1 -32.89,12.78 -38.02,36.26 -15.93,38.88 -0.05,56.01 35.18,37.94 27.66,4.77 56.28,-6.39 51.78,-20.18 61.14,-0.27 102.83,47.95 24.72,-1.94 20.84,-10.95 38.03,-25.17 6.24,-5.15 5.29,-3.18 10.07,-10.02zm-96.62 135.25l10.26 -10.68c6.95,-20.27 -0.61,-18.97 -12.18,-32.43 -27.87,-32.52 -31.06,-33.47 -53.2,-10.55 -53.43,55.3 -66.9,0.13 -85.05,-2.45 -15.99,2.26 -33.51,19.77 -36.29,35.84 5.6,10.11 7.68,10.35 15.14,18.14 39.37,41.24 12.31,-21.84 79.89,-4.98 40.79,10.19 24.7,66.91 81.43,7.11zm62.52 308.61c4.95,0.53 3.92,-0.88 3.43,3.92 4.75,-0.87 3.8,-1.93 3.14,2.82 4.34,-0.48 3.41,-1.58 3.39,2.51 4.52,-0.69 3.62,-1.8 3.43,2.49l16.72 -1.2c-0.41,-4.24 -1.3,-3.14 3.09,-2.82 -0.17,-4.22 -1.15,-3.23 3.09,-2.82 -0.34,-4.49 -1.49,-3.65 2.78,-3.16 -0.64,-4.46 -1.52,-3.38 3.07,-2.86 -0.29,-4.25 -1.28,-3.26 2.99,-2.92 -0.38,-4.43 -1.36,-3.44 3.07,-2.83 -0.14,-4.35 -1.14,-3.37 3.24,-2.72l4.96 -3.91 3.78 -5.1 2.85 -6.04 0.85 -8.17c-4.39,-0.04 -3.04,0.79 -1.88,-4.04l-4.49 -4.38 -5.77 -6.09 -2.18 -3.74c-4.17,0.31 -3.19,1.33 -3.16,-2.76 -4.42,0.38 -3.53,1.46 -3.17,-2.76 -4.26,0.36 -3.19,1.29 -2.83,-3.1 -4.11,0.25 -3.1,1.22 -3.05,-2.88l-3.02 -2.89 -4.8 -4.09 -4.07 -1.86c-5.09,0.95 -3.96,2.12 -3.96,-2.81 -13.58,6.42 -28.51,29.75 -41.84,34.02 -43.51,13.91 -44.57,-44.78 -75.66,-6.95 -3.43,4.17 -9.65,14.08 -11.09,17.37 11.88,11.46 14.8,20.49 31.72,29.46 13.02,-4.71 26.28,-28.81 51.01,-18.57 8.54,3.54 11.72,9.07 24.36,18.88zm80.16 -389.49c0.51,4.55 1.64,3.7 -2.71,3.2 0.81,4.66 1.7,3.58 -3.06,2.87 0.36,4.31 1.33,3.31 -3.03,2.9 0.64,4.61 1.55,3.54 -3.16,2.76 0.16,5.19 1.45,3.95 -3.66,3.95 -12.36,8.34 -15.55,11.29 -19.8,25.97 33.91,36.04 41.99,56.09 65.56,32.96 22.74,-22.31 16.38,-8.99 20.59,-20.52 -0.21,-4.69 -1.36,-3.72 3.21,-3.12l2.36 -3.56 1.1 -16.11 -1.44 -4.51c-4.37,0.41 -3.39,1.39 -2.9,-3.01 -4.34,0.34 -3.38,1.34 -2.93,-2.98 -4.53,0.55 -3.61,1.59 -3.05,-2.89 -4.39,0.47 -3.34,1.4 -2.81,-3.1 -4.61,0.57 -3.61,1.53 -2.85,-3.07 -4.48,0.6 -3.51,1.58 -3.01,-2.91 -4.52,0.57 -3.49,1.51 -2.85,-3.08 -4.3,0.52 -3.32,1.53 -3.21,-2.71 -4.49,0.52 -3.56,1.55 -2.99,-2.92 -4.51,0.34 -3.54,1.34 -2.78,-3.16 -4.4,0.42 -3.54,1.57 -3.39,-2.53l-20.27 2.57c0.7,4.53 1.67,3.53 -2.92,3zm-53.12 -226.84c-5.3,-0.05 -4.27,1.38 -3.79,-3.62l-3.29 -2.66c-8.21,-0.37 -4.03,1.31 -4.88,-3.98 -4.64,0.77 -3.71,1.79 -3.11,-2.83l-13.5 1.3c0.26,4.1 1.15,3 -3.13,2.8 0.35,4.17 1.38,3.25 -2.65,3.26 0.18,4.16 1.14,3.12 -3.16,2.76l-3.07 2.85c0.19,4.19 1.2,3.24 -2.94,2.98l1.66 4.92 3.62 5.28c4.65,-0.58 3.78,-1.69 3.08,2.83 4.76,-0.85 3.8,-1.92 3.28,2.81 10.29,2.22 2.02,-0.72 3.7,5.01 3.31,2.4 1.35,0.59 5.78,3.3l8.49 -2.06c27.41,-30.34 41.99,6.47 59.56,13.73 10.48,-2.41 29.59,-19.15 34.27,-29.57 0.35,-6.97 -23,-30.72 -31.32,-30.69 -23.71,6.04 -14.34,21.95 -48.6,21.58zm51.22 384.84c0.54,4.47 1.62,3.61 -2.69,3.22 0.39,4.19 1.26,3.08 -3.13,2.79 0.1,4.11 1.03,3.06 -3.22,2.72 0.11,4.17 1.14,3.25 -2.99,2.92 0.32,4.27 1.43,3.37 -2.63,3.3l-1.47 13.73 3.77 5.11 4.75 1.16 1.24 4.69c4.09,0.08 2.94,-0.82 2.31,3.62 4.35,-0.38 3.29,-1.3 2.76,3.15 4.6,-0.48 3.76,-1.61 3.12,2.83 4.71,-0.57 3.7,-1.75 3.7,2.7 16.33,-2.96 14.82,-5.21 23.49,-14.06 7.94,-8.09 11.01,-5.43 13.58,-19.65l-5.13 -4.65c-4.66,0.89 -3.75,1.98 -3.33,-2.57 -4.21,0.21 -3.14,1.14 -2.73,-3.22 -4.39,0.48 -3.46,1.54 -3.21,-2.7 -4.49,0.51 -3.51,1.52 -3,-2.91 -4.41,0.37 -3.42,1.36 -2.89,-3.06 -4.36,0.37 -3.47,1.45 -3.2,-2.7l-16.31 0.45c0.32,4.34 1.4,3.44 -2.79,3.13zm-8.93 -316.8c0.89,4.77 1.79,3.83 -2.92,2.6 0.43,4.84 1.5,3.75 -3.39,3.08 1.25,4.88 2.44,4.07 -2.33,3.46 0.8,4.66 1.88,3.55 -2.64,3.8l-0.65 7.7c4.71,0.24 3.46,-0.89 2.72,4.14 4.9,-1.02 3.87,-1.84 2.52,3.06 5,-0.65 3.88,-1.66 3,3.42 5.09,-1.46 4.11,-2.33 2.76,2.78 5.23,-0.93 4.32,-2.09 3.21,3.02 4.92,-1.4 3.85,-2.54 3.94,2.33l7.83 0.98c-0.79,-4.59 -1.49,-3.36 3.33,-2.38 -1.08,-5.32 -2.01,-3.63 3.72,-4.39l0.51 0.8c0,-5.13 -1.3,-3.75 3.49,-4.5l1.22 -2.63 5.38 -1.43 -0.09 -15.28c-5.13,1.09 -4.08,2.01 -2.85,-3.12 -5.39,1.35 -4.4,2.33 -2.88,-3 -5.31,1.37 -4.25,2.3 -2.87,-3.08 -5.43,1.35 -4.65,2.52 -3.06,-2.81 -5.36,1.53 -4.31,2.83 -4.28,-2.39l-11.7 1.18c-0.18,4.49 0.86,3.23 -3.97,2.66zm-58.82 437.25l20.86 -19.41c-7.79,-25.82 -26.06,-32.16 -43.55,0.92l22.69 18.49zm65.13 -352.72c0,5.61 1.54,4.7 -3.63,3.95 0.94,5.06 1.74,3.94 -3.29,2.38 -14.14,4.96 -2.97,0.81 -9.34,5.67 5.04,-0.09 3.46,5.03 4.15,10.64l4.11 4.78c4.94,-0.41 3.71,-1.54 3.71,3.47l15.96 3.2c0.55,-0.34 1.32,-0.8 1.88,-1.19 0.52,-0.36 1.28,-0.78 1.8,-1.17 18.93,-14.06 4.45,-22.76 -9.05,-35.98l-6.3 4.25zm-94.74 120.1c7.51,-6.6 9.39,-7.33 14.46,-17.77 -6.55,-8.49 -8.79,-14.85 -20.39,-16.47 -15.73,17.63 -14.68,26.31 5.93,34.24zm-47.98 150.4l-2.92 3c0.44,4.45 1.53,3.57 -2.84,3.12l-2.73 3.19 -0.59 6.89 1.99 3.92c4.67,-0.67 3.62,-1.63 2.89,3.06 4.91,-0.62 4.04,-1.73 2.89,3.03 5.07,-1.22 3.91,-2.03 2.79,3.17l9.97 -0.28 4.62 -4.12c-0.57,-4.48 -1.55,-3.5 2.95,-2.99l2.59 -3.33 -0.12 -6.36c-4.33,0.05 -3.07,0.89 -2.1,-3.84 -5.36,0.83 -3.75,1.78 -3.74,-4.07l0.03 0.1c-4.66,0 -3.37,1.08 -3.25,-3.87 -4.33,0.4 -3.39,1.43 -3.11,-2.81l-6.49 -0.87c0.58,4.51 1.61,3.56 -2.83,3.06zm189.82 -358.25l4.7 2.07 6.79 0.81c-0.62,-4.45 -1.51,-3.36 3.02,-2.89 -0.32,-4.39 -1.34,-3.42 3,-2.95 -0.69,-4.41 -1.63,-3.38 2.8,-3.11 -0.4,-4.02 -1.27,-2.93 2.88,-3.04l-0.45 -3.91 -4.09 -6.46 -12.24 -4.59 -15.69 11.97 9.28 12.1zm-184.7 -55.71l15.55 12.86c14.78,-10.77 18.25,-18.18 -0.43,-29.01 -9.13,9.47 -8.7,2.2 -15.12,16.15zm131.29 58.93c-4.21,-0.57 -3.34,-1.57 -2.92,2.6 -5.67,-1.2 -4.75,-2.45 -3.39,3.08 -4.39,-0.76 -3.05,-1.36 -2.33,3.46 -5.23,-0.63 -3.94,-1.56 -2.64,3.8l-0.65 7.7c-2.01,6.14 -3.47,5.21 2.72,4.14 -0.72,4.49 -1.81,3.71 2.52,3.06 -1.34,5.74 -2.61,4.87 3,3.42 -0.88,4.66 -1.84,3.77 2.76,2.78 -1.36,5.57 -2.35,4.49 3.21,3.02 -1.29,5.16 -1.74,3.45 3.94,2.33 0.6,0.44 1.55,0.5 1.86,1.26 0.31,0.71 1.56,0.69 1.94,0.69l4.03 -0.97c5.2,1.74 4.43,2.92 3.33,-2.38 5.6,1.17 3.72,1.95 3.72,-4.39 -5.73,0.76 -4.8,-0.93 -3.72,4.39 -4.82,-0.98 -4.12,-2.21 -3.33,2.38l-7.83 -0.98c-0.09,-4.87 0.98,-3.73 -3.94,-2.33 1.11,-5.11 2.02,-3.95 -3.21,-3.02 1.35,-5.11 2.33,-4.24 -2.76,-2.78 0.88,-5.08 2,-4.07 -3,-3.42 1.35,-4.9 2.38,-4.08 -2.52,-3.06 0.74,-5.03 1.99,-3.9 -2.72,-4.14l0.65 -7.7c4.52,-0.25 3.44,0.86 2.64,-3.8 4.77,0.61 3.58,1.42 2.33,-3.46 4.89,0.67 3.82,1.76 3.39,-3.08 4.71,1.23 3.81,2.17 2.92,-2.6 4.83,0.57 3.79,1.83 3.97,-2.66l11.7 -1.18c-0.03,5.22 -1.08,3.92 4.28,2.39 -1.59,5.33 -2.37,4.16 3.06,2.81 -1.38,5.38 -2.44,4.45 2.87,3.08 -1.52,5.33 -2.51,4.35 2.88,3 -1.23,5.13 -2.28,4.21 2.85,3.12l0.09 15.28 -5.38 1.43 -1.22 2.63c-4.79,0.75 -3.49,-0.63 -3.49,4.5 7.62,1.99 5.96,3.06 3.49,-4.5l1.22 -2.63c7.39,1.98 7.86,4.89 5.38,-1.43 1.77,-2.14 3.83,7.56 2.77,-7.69 -1.15,-16.37 0.43,-2.87 -2.86,-7.59 1.79,-5.51 2.75,-4.49 -2.85,-3.12 1.21,-5.27 2.31,-4.41 -2.88,-3 1.51,-5.44 2.54,-4.49 -2.87,-3.08 1.42,-5.43 2.36,-4.37 -3.06,-2.81 1.8,-6.43 2.28,-4.51 -4.28,-2.39 -8.74,-2.72 -4.66,-3.14 -11.7,1.18 -5.74,-1.36 -4.92,-2.86 -3.97,2.66zm10.83 158.8c-4.55,-0.53 -3.5,-1.46 -2.71,3.2 -4.37,-0.48 -3.42,-1.47 -3.06,2.87 -4.62,-0.71 -3.65,-1.72 -3.03,2.9 -4.27,-0.42 -3.32,-1.45 -3.16,2.76 -5.16,-0.88 -3.54,-1.74 -3.66,3.95 5.11,0 3.82,1.24 3.66,-3.95 4.71,0.78 3.8,1.85 3.16,-2.76 4.36,0.41 3.39,1.41 3.03,-2.9 4.76,0.71 3.87,1.79 3.06,-2.87 4.35,0.5 3.22,1.35 2.71,-3.2 4.59,0.53 3.62,1.53 2.92,-3l20.27 -2.57c-0.15,4.1 -1.01,2.95 3.39,2.53 -0.76,4.5 -1.73,3.5 2.78,3.16 -0.57,4.47 -1.5,3.44 2.99,2.92 -0.11,4.24 -1.09,3.23 3.21,2.71 -0.64,4.59 -1.67,3.65 2.85,3.08 -0.5,4.49 -1.47,3.51 3.01,2.91 -0.76,4.6 -1.76,3.64 2.85,3.07 -0.53,4.5 -1.58,3.57 2.81,3.1 -0.56,4.48 -1.48,3.44 3.05,2.89 -0.45,4.32 -1.41,3.32 2.93,2.98 -0.49,4.4 -1.47,3.42 2.9,3.01l1.44 4.51 -1.1 16.11 -2.36 3.56c-4.57,-0.6 -3.42,-1.57 -3.21,3.12 4.33,0 3.34,1.11 3.21,-3.12 5.04,0.62 3.83,1.47 2.36,-3.56 5.56,-5.28 4.16,-9.5 1.1,-16.11 1.77,-5.54 3.57,-4.96 -1.44,-4.51 0.63,-4.37 1.56,-3.34 -2.9,-3.01 0.5,-4.48 1.52,-3.53 -2.93,-2.98 0.41,-4.38 1.4,-3.37 -3.05,-2.89 0.57,-4.59 1.65,-3.7 -2.81,-3.1 0.52,-4.6 1.62,-3.7 -2.85,-3.07 0.79,-4.54 1.66,-3.45 -3.01,-2.91 0.46,-4.52 1.53,-3.61 -2.85,-3.08 0.69,-4.4 1.46,-3.2 -3.21,-2.71 0.11,-4.19 1.15,-3.24 -2.99,-2.92 0.5,-4.5 1.59,-3.62 -2.78,-3.16 0.81,-5.22 1.74,-4.14 -3.39,-2.53 -5.78,-3 -17.36,-7.79 -20.27,2.57 -4.4,-0.43 -3.43,-1.42 -2.92,3zm-54.7 318.09l4.07 1.86 4.8 4.09 3.02 2.89c-0.05,4.1 -1.06,3.13 3.05,2.88 -0.36,4.39 -1.43,3.46 2.83,3.1 -0.36,4.22 -1.25,3.14 3.17,2.76 -0.03,4.09 -1.01,3.07 3.16,2.76l2.18 3.74 5.77 6.09 4.49 4.38c-1.16,4.83 -2.51,4 1.88,4.04l-0.85 8.17 -2.85 6.04 -3.78 5.1 -4.96 3.91c-4.38,-0.65 -3.38,-1.63 -3.24,2.72 -4.43,-0.61 -3.45,-1.6 -3.07,2.83 -4.27,-0.34 -3.28,-1.33 -2.99,2.92 -4.59,-0.52 -3.71,-1.6 -3.07,2.86 -4.27,-0.49 -3.12,-1.33 -2.78,3.16 -4.24,-0.41 -3.26,-1.4 -3.09,2.82 -4.39,-0.32 -3.5,-1.42 -3.09,2.82l-16.72 1.2c0.19,-4.29 1.09,-3.18 -3.43,-2.49 0.02,-4.09 0.95,-2.99 -3.39,-2.51 0.66,-4.75 1.61,-3.69 -3.14,-2.82 0.49,-4.8 1.52,-3.39 -3.43,-3.92 0,5.7 -1.65,4.97 3.43,3.92 -0.48,4.37 -1.38,3.29 3.14,2.82 -0.73,4.47 -1.44,3.18 3.39,2.51 -0.01,4.37 -1.02,3.34 3.43,2.49 4.83,3.14 13.14,7.94 16.72,-1.2 4.25,0.35 3.26,1.37 3.09,-2.82 4.39,0.33 3.48,1.4 3.09,-2.82 4.44,0.41 3.4,1.35 2.78,-3.16 4.35,0.45 3.39,1.45 3.07,-2.86 4.39,0.57 3.38,1.52 2.99,-2.92 4.22,0.35 3.24,1.35 3.07,-2.83 4.55,0.57 3.67,1.67 3.24,-2.72 8.22,-1.08 3.95,0.63 4.96,-3.91 4.86,-0.91 3.3,3.47 3.78,-5.1l2.85 -6.04c6.49,-3.46 6.16,-3.54 0.85,-8.17 1.29,-5.33 2.95,-4.82 -1.88,-4.04l-4.49 -4.38c-1.61,-2.35 -2.07,-3.44 -5.77,-6.09 1.64,-5.01 2.81,-4.1 -2.18,-3.74 0.15,-4.19 1.11,-3.14 -3.16,-2.76 0.01,-4.09 0.99,-3.1 -3.17,-2.76 0.32,-4.28 1.36,-3.35 -2.83,-3.1 0.37,-4.1 1.25,-3.02 -3.05,-2.88l-3.02 -2.89 -4.8 -4.09 -4.07 -1.86c0.28,-4.47 1.12,-3.02 -3.96,-2.81 0,4.93 -1.13,3.76 3.96,2.81zm52.8 -160.09c-4.18,-0.29 -3.05,-1.16 -2.69,3.22 -4.18,-0.34 -3.21,-1.32 -3.13,2.79 -4.24,-0.27 -3.31,-1.34 -3.22,2.72 -4.31,-0.34 -3.35,-1.35 -2.99,2.92 -4.4,-0.31 -3.32,-1.24 -2.63,3.3 -5.52,5.55 -7.13,5.58 -1.47,13.73 0.22,11.77 -0.14,3.31 3.77,5.11l4.75 1.16 1.24 4.69c-1,4.81 -2.24,4 2.31,3.62 -0.66,4.58 -1.73,3.68 2.76,3.15 -0.55,4.45 -1.45,3.39 3.12,2.83 -0.68,4.83 -1.49,3.46 3.7,2.7 0,-4.45 1.01,-3.27 -3.7,-2.7 0.64,-4.44 1.48,-3.31 -3.12,-2.83 0.53,-4.45 1.59,-3.53 -2.76,-3.15 0.63,-4.44 1.78,-3.54 -2.31,-3.62l-1.24 -4.69 -4.75 -1.16 -3.77 -5.11 1.47 -13.73c4.06,0.07 2.95,0.97 2.63,-3.3 4.13,0.33 3.1,1.25 2.99,-2.92 4.25,0.34 3.32,1.39 3.22,-2.72 4.39,0.29 3.52,1.4 3.13,-2.79 4.31,0.39 3.23,1.25 2.69,-3.22 4.19,0.31 3.11,1.21 2.79,-3.13l16.31 -0.45c-0.27,4.15 -1.16,3.07 3.2,2.7 -0.53,4.42 -1.52,3.43 2.89,3.06 -0.51,4.43 -1.49,3.42 3,2.91 -0.25,4.24 -1.18,3.18 3.21,2.7 -0.41,4.36 -1.48,3.43 2.73,3.22 -0.42,4.55 -1.33,3.46 3.33,2.57l-3.33 -2.57c0.34,-4.54 1.53,-3.75 -2.73,-3.22 0.43,-4.32 1.31,-3.19 -3.21,-2.7 0.22,-4.26 1.23,-3.29 -3,-2.91 0.48,-4.41 1.49,-3.44 -2.89,-3.06 0.56,-4.53 1.45,-3.42 -3.2,-2.7 -1.39,-1.05 4.02,-4.45 -9.62,-3.76 -12.09,0.61 -4.15,0.66 -6.69,4.21 -4.31,-0.26 -3.31,-1.24 -2.79,3.13zm-20.94 -244.88l-1.69 17.27 -9.67 2.85c-4.61,-1.42 -3.45,-2.21 -3.21,2.7 -4.47,-0.51 -3.54,-1.53 -2.98,2.91 -4.28,-0.28 -3.21,-1.2 -2.73,3.22 -4.55,-0.58 -3.2,-1.4 -2.94,3.56 4.53,0 3.39,1.07 2.94,-3.56 4.37,0.55 3.22,1.38 2.73,-3.22 4.21,0.28 3.26,1.28 2.98,-2.91 4.25,0.5 3.27,1.5 3.21,-2.7 8.48,1.23 8.62,1.17 13.42,4.49 0.37,11.38 -1.04,4.44 4.15,10.64l4.11 4.78c-0.24,4.46 -1.18,3.04 3.71,3.47 0,-5.01 1.23,-3.88 -3.71,-3.47l-4.11 -4.78c-0.69,-5.61 0.89,-10.73 -4.15,-10.64 6.37,-4.86 -4.8,-0.71 9.34,-5.67 5.03,1.56 4.23,2.68 3.29,-2.38 5.17,0.75 3.63,1.66 3.63,-3.95 -5.47,0.39 -4.54,-1.15 -3.63,3.95 -4.37,-0.66 -3.53,-1.76 -3.29,2.38 -9.83,-3.25 -4.92,-0.46 -9.46,-4.68 0.32,-9.93 1.58,-7.64 -1.94,-14.26 1.31,-6.12 3.14,-5.21 -2.11,-5.21l2.11 5.21zm-61.98 -148.95l-2.65 3.26 -3.16 2.76c-4.23,-0.37 -3.26,-1.37 -3.07,2.85 -4.54,-0.09 -3.81,-1.29 -2.94,2.98 -8.55,-0.64 -0.39,4.2 1.66,4.92 -0.06,8.54 -1.84,4.66 3.62,5.28 -0.73,4.73 -1.67,3.7 3.08,2.83 -0.7,4.77 -1.62,3.68 3.28,2.81l3.7 5.01c0.92,2.73 -3.05,5.36 5.96,5.78 12.9,0.6 5.9,-2.05 8.31,-4.54l-8.49 2.06c-4.43,-2.71 -2.47,-0.9 -5.78,-3.3 -1.68,-5.73 6.59,-2.79 -3.7,-5.01 0.52,-4.73 1.48,-3.66 -3.28,-2.81 0.7,-4.52 1.57,-3.41 -3.08,-2.83l-3.62 -5.28 -1.66 -4.92c4.14,0.26 3.13,1.21 2.94,-2.98l3.07 -2.85c4.3,0.36 3.34,1.4 3.16,-2.76 4.03,-0.01 3,0.91 2.65,-3.26 4.28,0.2 3.39,1.3 3.13,-2.8l13.5 -1.3c-0.6,4.62 -1.53,3.6 3.11,2.83 0.85,5.29 -3.33,3.61 4.88,3.98l3.29 2.66c-0.48,5 -1.51,3.57 3.79,3.62 0,-5.04 1.25,-3.82 -3.79,-3.62 0.43,-4.89 1.49,-3.95 -3.29,-2.66l-4.88 -3.98c0.68,-4.83 1.68,-3.83 -3.11,-2.83l-7.29 -4.48 -6.21 5.78c-4.44,-0.56 -3.49,-1.59 -3.13,2.8zm142.19 112.88c-1.32,1.4 -12.91,0.31 0.67,26.02 14.97,0.61 21.4,-7.81 28.68,-17.15l-2.57 -12.66c-3.9,7.38 -1.97,8.49 -3.64,17.85 -0.59,0.39 -1.52,0.29 -1.77,1.16 -0.31,1.05 -7.89,7.15 -18.1,7.94 -6.02,-10.67 -5.68,-15.9 -3.27,-23.16zm22.82 78.51c-0.75,0.29 -1.96,-0.19 -2.27,0.82 -0.29,0.95 -1.73,0.63 -2.13,0.91 -4.11,2.82 -0.43,-0.2 -4.88,4.07 -7.87,7.53 -13.29,12.23 -31.16,-10.25 -5.02,-6.32 -2.83,-2.9 -4.76,-8.93 1.42,-1.81 1.54,-2.13 3.61,-4.37 0.51,-0.53 2.61,-2.68 3.17,-3.28 0.47,-0.51 1.32,-1.39 1.73,-1.8 0.4,-0.44 1.21,-1.24 1.8,-1.85 -9.14,4.15 -4.55,-0.09 -13.41,11.3 4.4,11.75 17.06,25.52 31.71,29.28 8.28,-6.04 11.24,-9.82 16.59,-15.9zm-227.43 240.67c-4.41,-0.45 -3.41,-1.42 -2.92,3l-2.84 3.12c-4.65,-0.44 -3.68,-1.44 -2.73,3.19l-0.59 6.89c-1.27,5.26 -2.82,4.7 1.99,3.92 -0.85,4.68 -1.84,3.72 2.89,3.06 -0.76,5.03 -1.94,4.26 2.89,3.03 -1.1,5.14 -2.24,4.27 2.79,3.17 0.7,0.54 1.8,1.03 2.41,1.13 0.58,0.11 1.88,0.37 2.47,0.43 5.97,0.64 5.46,3.37 5.09,-1.84 9.22,-1.33 2.34,0.2 4.62,-4.12 4.21,0.36 3.18,1.3 2.95,-2.99 4.82,0.54 3.75,1.5 2.59,-3.33l-0.12 -6.36c1.32,-5.29 2.86,-4.73 -2.1,-3.84 1.07,-5.59 2.14,-4.07 -3.74,-4.07 -0.01,5.85 -1.62,4.9 3.74,4.07 -0.97,4.73 -2.23,3.89 2.1,3.84l0.12 6.36 -2.59 3.33c-4.5,-0.51 -3.52,-1.49 -2.95,2.99l-4.62 4.12 -9.97 0.28c1.12,-5.2 2.28,-4.39 -2.79,-3.17 1.15,-4.76 2.02,-3.65 -2.89,-3.03 0.73,-4.69 1.78,-3.73 -2.89,-3.06l-1.99 -3.92 0.59 -6.89 2.73 -3.19c4.37,0.45 3.28,1.33 2.84,-3.12l2.92 -3c4.44,0.5 3.41,1.45 2.83,-3.06l6.49 0.87c-0.28,4.24 -1.22,3.21 3.11,2.81 -0.12,4.95 -1.41,3.87 3.25,3.87 0,-5.21 1.46,-4.32 -3.25,-3.87l-3.11 -2.81c-0.75,-1.31 -8.09,-12.42 -6.49,-0.87l-2.83 3.06zm241.06 -323.13c3.79,5.24 2.44,4.11 6.77,8.17 13.44,-8.85 10.07,-14.27 29.42,-17.34 2.11,8.18 0.97,10.16 4.98,18.98 0.41,0.9 3.3,7.11 3.94,8.44l5.7 8.53c-15.17,-50.83 -23.52,-37.06 -23.64,-37.02l-19.63 16.4c-4.29,-5.54 -3.88,-3.92 -7.54,-6.16zm76.4 723.84c0.72,0.68 1.58,1.55 2.13,2.02l9.68 5.99c12.2,-5.33 9.91,-5.74 11.9,-15.42l-8.92 10.19c-10.01,-0.47 -5.73,0.2 -14.79,-2.78zm-104.9 -771.98l0.45 3.91c-4.15,0.11 -3.28,-0.98 -2.88,3.04 -4.43,-0.27 -3.49,-1.3 -2.8,3.11 -4.34,-0.47 -3.32,-1.44 -3,2.95 -4.53,-0.47 -3.64,-1.56 -3.02,2.89l-6.79 -0.81 -4.7 -2.07c0,4.68 -0.82,3.06 4.7,2.07 -0.91,5.8 -1.35,2.68 2.53,2.67 5.7,-0.02 1.02,1.33 4.26,-1.86 4.55,1.23 3.33,1.95 3.02,-2.89 4.59,0.45 3.69,1.54 3,-2.95 4.31,0.52 3.18,1.39 2.8,-3.11 4.18,0.3 3.15,1.23 2.88,-3.04 8.18,-0.28 1.17,-3.23 -0.45,-3.91 0.28,-9.43 1.83,-4.41 -4.09,-6.46l4.09 6.46zm-153.05 656.95c-0.52,-0.49 -1.39,-1.02 -1.73,-1.32l-7.93 -8 20.82 -8.76c-10.42,2.63 -16.71,1.04 -24.26,12.48l13.1 5.6zm580.61 -342.68c-2.5,-3.49 -1.23,-2.52 -4.39,-5.87 -3.54,-3.72 -1.81,-1.57 -5.8,-4.4 4.7,8 2.31,5.63 10.19,10.27zm-883.04 119.11c-9.02,2.2 -2.97,-0.46 -5.03,5.53l5.03 -5.53 5.44 -4.67c-6.14,1.95 -3.6,-3.15 -5.44,4.67zm247.48 -177.46c4.7,-2.98 2.26,-0.54 6.1,-4.28 4.26,-4.19 0.82,-0.69 4.16,-6.4l-10.26 10.68z"/>
  <g>
   <g style="clip-path:url(#id0)">
    <image x="1382.27" y="6110.71" width="4427.43" height="1068.68" xlink:href="ascent-otm-login_Images\ascent-otm-login_ImgID1.png"/>
   </g>
  </g>
  <path class="fil6" d="M8725.63 3118.13c0,162.56 -30.81,300.85 -92.44,414.87 -61.13,114.03 -144.59,201.13 -250.38,261.29 -105.29,59.69 -223.68,89.53 -355.18,89.53 -132.47,0 -251.35,-30.08 -356.65,-90.25 -105.3,-60.17 -188.52,-147.27 -249.65,-261.31 -61.14,-114.01 -91.71,-252.07 -91.71,-414.13 0,-162.55 30.57,-300.84 91.71,-414.88 61.13,-114.04 144.35,-200.89 249.65,-260.57 105.3,-60.17 224.18,-90.25 356.65,-90.25 131.5,0 249.89,30.08 355.18,90.25 105.79,59.68 189.25,146.53 250.38,260.57 61.63,114.04 92.44,252.33 92.44,414.88zm-319.53 0c0,-105.29 -15.77,-194.09 -47.31,-266.39 -31.04,-72.31 -74.96,-127.14 -131.74,-164.51 -56.77,-37.36 -123.25,-56.04 -199.42,-56.04 -76.19,0 -142.67,18.68 -199.43,56.04 -56.78,37.37 -100.93,92.2 -132.47,164.51 -31.06,72.3 -46.59,161.1 -46.59,266.39 0,105.3 15.53,194.1 46.59,266.4 31.54,72.29 75.69,127.12 132.47,164.49 56.76,37.36 123.24,56.04 199.43,56.04 76.17,0 142.65,-18.68 199.42,-56.04 56.78,-37.37 100.7,-92.2 131.74,-164.49 31.54,-72.3 47.31,-161.1 47.31,-266.4zm553 745.31l0 -1490.63 588.09 0c113.06,0 209.38,21.59 288.96,64.77 79.57,42.71 140.22,102.15 181.96,178.33 42.22,75.7 63.32,163.03 63.32,262.03 0,98.98 -21.35,186.32 -64.05,262.02 -42.7,75.7 -104.57,134.65 -185.6,176.87 -80.55,42.21 -178.08,63.32 -292.59,63.32l-374.84 0 0 -252.56 323.89 0c60.65,0 110.63,-10.43 149.93,-31.29 39.8,-21.36 69.39,-50.72 88.8,-88.09 19.9,-37.84 29.85,-81.26 29.85,-130.27 0,-49.5 -9.95,-92.69 -29.85,-129.56 -19.41,-37.36 -49,-66.24 -88.8,-86.62 -39.79,-20.86 -90.24,-31.29 -151.4,-31.29l-212.52 0 0 1232.97 -315.15 0zm1327.04 0l0 -1490.63 1004.43 0 0 259.84 -689.27 0 0 355.18 637.59 0 0 259.85 -637.59 0 0 355.92 692.19 0 0 259.84 -1007.35 0zm1255 0l0 -1490.63 588.1 0c112.57,0 208.66,20.13 288.22,60.41 80.07,39.78 140.97,96.32 182.7,169.59 42.21,72.78 63.33,158.43 63.33,256.93 0,98.98 -21.36,184.14 -64.06,255.47 -42.69,70.85 -104.56,125.2 -185.61,163.04 -80.55,37.85 -178.07,56.77 -292.59,56.77l-393.76 0 0 -253.29 342.81 0c60.17,0 110.15,-8.24 149.94,-24.74 39.79,-16.5 69.39,-41.24 88.8,-74.25 19.89,-32.99 29.84,-73.99 29.84,-123 0,-49.49 -9.95,-91.23 -29.84,-125.19 -19.41,-33.96 -49.26,-59.68 -89.53,-77.15 -39.78,-17.96 -90,-26.93 -150.66,-26.93l-212.53 0 0 1232.97 -315.16 0zm804.99 -678.36l370.49 678.36 -347.91 0 -362.48 -678.36 339.9 0zm797 678.36l-337.72 0 514.59 -1490.63 406.14 0 513.88 1490.63 -337.73 0 -373.39 -1149.99 -11.65 0 -374.12 1149.99zm-21.1 -585.92l797.76 0 0 246.01 -797.76 0 0 -246.01zm1058.46 -644.87l0 -259.84 1224.29 0 0 259.84 -456.39 0 0 1230.79 -311.5 0 0 -1230.79 -456.4 0zm1741.01 -259.84l0 1490.63 -315.15 0 0 -1490.63 315.15 0zm1629.13 745.32c0,162.56 -30.81,300.85 -92.44,414.87 -61.09,114.03 -144.65,201.13 -250.39,261.29 -105.35,59.69 -223.63,89.53 -355.22,89.53 -132.38,0 -251.31,-30.08 -356.66,-90.25 -105.23,-60.17 -188.52,-147.27 -249.62,-261.31 -61.09,-114.01 -91.64,-252.07 -91.64,-414.13 0,-162.55 30.55,-300.84 91.64,-414.88 61.1,-114.04 144.39,-200.89 249.62,-260.57 105.35,-60.17 224.28,-90.25 356.66,-90.25 131.59,0 249.87,30.08 355.22,90.25 105.74,59.68 189.3,146.53 250.39,260.57 61.63,114.04 92.44,252.33 92.44,414.88zm-319.59 0c0,-105.29 -15.66,-194.09 -47.26,-266.39 -31.07,-72.31 -74.93,-127.14 -131.73,-164.51 -56.78,-37.36 -123.23,-56.04 -199.47,-56.04 -76.11,0 -142.57,18.68 -199.35,56.04 -56.79,37.37 -100.92,92.2 -132.51,164.51 -31.07,72.3 -46.61,161.1 -46.61,266.39 0,105.3 15.54,194.1 46.61,266.4 31.59,72.29 75.72,127.12 132.51,164.49 56.78,37.36 123.24,56.04 199.35,56.04 76.24,0 142.69,-18.68 199.47,-56.04 56.8,-37.37 100.66,-92.2 131.73,-164.49 31.6,-72.3 47.26,-161.1 47.26,-266.4zm1799.88 -745.32l0 1490.63 -272.19 0 -648.57 -938.19 -10.97 0 0 938.19 -315.14 0 0 -1490.63 276.63 0 643.35 937.47 13.18 0 0 -937.47 313.71 0z"/>
  <path class="fil6" d="M7319.58 5628.24l74.1 0 254.9 612.01 6.17 0 254.9 -612.01 74.1 0 0 702.58 -60.38 0 0 -567.07 -5.5 0 -237.05 567.07 -58.32 0 -237.06 -567.07 -5.48 0 0 567.07 -60.38 0 0 -702.58zm1402.65 702.58l-67.24 0 255.58 -702.58 68.62 0 255.57 702.58 -67.23 0 -220.25 -619.23 -4.8 0 -220.25 619.23zm48.37 -269.3l348.55 0 0 57.63 -348.55 0 0 -57.63zm1682.42 -433.28l0 702.58 -62.44 0 -415.1 -588.34 -5.49 0 0 588.34 -64.15 0 0 -702.58 62.09 0 416.48 589.03 5.49 0 0 -589.03 63.12 0zm738.48 702.58l-67.23 0 255.57 -702.58 68.62 0 255.58 702.58 -67.24 0 -220.24 -619.23 -4.81 0 -220.25 619.23zm48.38 -269.3l348.54 0 0 57.63 -348.54 0 0 -57.63zm1588.33 -213.73c-6.4,-23.33 -15.78,-45.17 -28.13,-65.52 -12.35,-20.59 -27.66,-38.54 -45.97,-53.87 -18.07,-15.54 -38.99,-27.67 -62.78,-36.35 -23.55,-8.7 -49.86,-13.04 -78.9,-13.04 -45.75,0 -86.69,11.89 -122.82,35.68 -36.14,23.78 -64.72,58.09 -85.76,102.92 -20.81,44.82 -31.23,98.8 -31.23,161.92 0,62.9 10.52,116.75 31.57,161.58 21.04,44.83 49.86,79.24 86.45,103.27 36.83,23.78 78.9,35.68 126.25,35.68 43.23,0 81.41,-9.62 114.58,-28.83 33.17,-19.2 59.01,-46.65 77.54,-82.33 18.74,-35.67 27.9,-78.1 27.44,-127.28l20.59 6.53 -225.06 0 0 -57.64 266.91 0 0 57.64c0,59.92 -12.13,111.72 -36.37,155.4 -24.24,43.68 -57.52,77.42 -99.83,101.21 -42.31,23.78 -90.91,35.67 -145.8,35.67 -61.29,0 -114.93,-14.75 -160.9,-44.25 -45.97,-29.74 -81.76,-71.59 -107.38,-125.56 -25.39,-54.21 -38.08,-117.91 -38.08,-191.09 0,-55.12 7.32,-104.87 21.96,-149.23 14.63,-44.37 35.34,-82.34 62.09,-113.91 26.99,-31.55 58.89,-55.67 95.72,-72.37 36.83,-16.93 77.53,-25.39 122.13,-25.39 38.42,0 73.52,6.05 105.32,18.18 32.01,12.12 60.15,28.82 84.39,50.08 24.48,21.05 44.48,45.41 60.04,73.08 15.78,27.45 26.41,56.72 31.91,87.82l-65.88 0zm780.59 483.03l0 -702.58 407.59 0 0 57.63 -343.43 0 0 264.5 321.76 0 0 57.63 -321.76 0 0 265.19 350.22 0 0 57.63 -414.38 0zm1124.31 -702.58l74.02 0 254.96 612.01 6.14 0 254.96 -612.01 74.02 0 0 702.58 -60.31 0 0 -567.07 -5.49 0 -237.07 567.07 -58.36 0 -237.07 -567.07 -5.49 0 0 567.07 -60.31 0 0 -702.58zm1401.58 702.58l0 -702.58 407.57 0 0 57.63 -343.47 0 0 264.5 321.8 0 0 57.63 -321.8 0 0 265.19 350.26 0 0 57.63 -414.36 0zm1671.42 -702.58l0 702.58 -62.4 0 -415.15 -588.34 -5.48 0 0 588.34 -64.1 0 0 -702.58 62.01 0 416.58 589.03 5.48 0 0 -589.03 63.06 0zm694.91 57.63l0 -57.63 509.54 0 0 57.63 -222.72 0 0 644.95 -64.1 0 0 -644.95 -222.72 0z"/>
  <line class="fil7 str0" x1="7226.25" y1="4691.69" x2="19014.86" y2= "4679.56" />
  <line class="fil7 str0" x1="6501.71" y1="1722.43" x2="6501.71" y2= "7035.79" />
  <path class="fil7 str0" d="M1495.15 1115.38l17859.14 0c414.51,0 750.66,336.15 750.66,750.66l0 4921.71c0,414.5 -336.15,750.65 -750.66,750.65l-17859.14 0.01c-414.51,-0.01 -750.66,-336.16 -750.66,-750.66l0 -4921.71c0,-414.51 336.15,-750.66 750.66,-750.66z"/>
 </g>
</svg>
